<svg xmlns="http://www.w3.org/2000/svg" viewBox="0 0 1000 330" width="1000" height="330" role="img" aria-label="Toolbox. apple: Swift, SwiftUI, AppKit, SwiftData, AVFoundation, Xcode. web: TypeScript, React, Next.js, Tailwind CSS, Cloudflare Workers. backend: Node.js, Python, PostgreSQL, SQL. AI &amp; agents: Codex, Claude Code, OpenRouter, WebMCP, on-device speech. workflow: Git, GitHub, Figma, Obsidian"><title>Toolbox. apple: Swift, SwiftUI, AppKit, SwiftData, AVFoundation, Xcode. web: TypeScript, React, Next.js, Tailwind CSS, Cloudflare Workers. backend: Node.js, Python, PostgreSQL, SQL. AI &amp; agents: Codex, Claude Code, OpenRouter, WebMCP, on-device speech. workflow: Git, GitHub, Figma, Obsidian</title><defs><filter id="shadow" x="-10%" y="-10%" width="120%" height="130%"><feDropShadow dx="2" dy="5" stdDeviation="5" flood-color="#000" flood-opacity="0.22"/></filter><pattern id="tapeLines" width="6" height="6" patternUnits="userSpaceOnUse" patternTransform="rotate(70)"><line x1="0" y1="0" x2="0" y2="6" stroke="#fff" stroke-width="2"/></pattern><path id="cv-a" d="M124 21Q120 29 106 37Q93 45 93 49Q93 53 88 62Q84 70 80 74Q75 80 83 104Q91 127 107 161Q123 195 142 230Q150 238 158 251Q166 264 170 268Q170 272 173 276Q176 279 180 279L188 295Q190 299 200 311Q211 323 226 338Q241 352 256 365Q272 378 282 384Q303 398 326 397Q348 396 364 383Q367 380 378 371Q388 362 402 351Q415 340 425 331L462 298L445 248Q432 208 438 178Q445 148 457 126Q462 115 470 109Q479 103 493 101Q501 100 508 95Q515 90 515 79Q515 55 506 44Q498 34 488 32Q455 28 425 39Q395 50 371 96Q367 102 360 118Q354 135 353 140Q349 135 342 128Q336 120 330 114Q259 42 208 20Q158 -1 124 21ZM179 104Q186 103 201 112Q216 120 241 140Q275 169 297 188Q319 207 340 237L362 273Q352 296 344 303Q336 310 328 310Q315 310 297 294Q279 277 256 246Q234 214 206 167Q193 145 186 124Q179 104 179 104Z"/><path id="cv-p" d="M61 -233Q57 -233 50 -234Q42 -234 37 -225Q33 -220 25 -206Q17 -191 22 -165Q27 -148 30 -132Q33 -115 33 -107Q33 -103 36 -92Q38 -80 38 -75Q43 -67 46 -53Q49 -39 49 -28Q49 -16 61 -6Q61 2 64 14Q68 26 68 30Q71 44 82 80Q92 115 108 160Q123 205 138 248Q153 291 165 321Q177 349 185 373Q193 397 193 407Q193 411 195 414Q197 416 204 424Q214 434 230 432Q247 429 258 421Q266 408 270 398Q273 387 269 365Q269 350 262 338Q255 325 250 318Q244 310 246 311Q290 338 326 340Q361 343 386 328Q410 314 423 289Q436 264 436 235Q436 223 428 203Q420 183 410 166Q400 148 394 142Q390 142 386 136Q382 129 378 121Q370 111 352 98Q333 86 314 78Q295 71 287 74Q287 74 284 72Q282 70 282 65Q282 63 268 57Q254 51 235 46Q216 41 200 41Q179 41 170 49Q168 47 166 43Q163 39 163 36Q163 30 158 17Q154 4 148 -6Q142 -17 137 -17Q137 -17 135 -20Q133 -23 137 -28Q137 -28 136 -40Q136 -51 131 -59Q131 -67 128 -83Q125 -99 121 -107Q121 -119 118 -130Q114 -142 110 -142Q106 -143 105 -154Q104 -166 104 -171Q103 -196 88 -214Q73 -233 61 -233ZM189 117Q197 117 218 124Q239 131 262 142Q285 152 298 163Q324 186 338 208Q353 230 336 257Q328 271 310 268Q293 266 272 252Q251 238 229 217Q217 204 207 187Q197 170 190 154Q184 138 183 128Q182 117 189 117Z"/><path id="cv-p.ss01" d="M91 -185Q77 -189 62 -178Q48 -167 40 -148Q33 -129 40 -109Q42 -103 46 -90Q50 -76 51 -66Q52 -59 57 -42Q62 -26 68 -10Q75 6 79 13Q85 23 88 36Q90 49 90 56Q92 63 96 72Q99 81 103 86Q105 94 109 104Q113 113 118 120Q120 127 122 137Q123 147 127 148Q128 152 128 156Q129 160 132 167Q134 178 141 199Q148 220 158 245Q169 274 173 296Q177 317 162 323Q154 327 152 342Q150 356 154 371Q158 386 166 389Q175 393 188 394Q201 395 212 394Q222 394 221 392Q221 387 226 386Q228 389 234 378Q241 366 247 352Q253 338 253 333Q251 329 251 328Q251 328 255 328Q255 328 266 334Q277 339 290 346Q302 354 306 358Q306 358 312 360Q317 363 321 367Q341 375 364 370Q388 365 402 352Q422 327 432 290Q443 253 429 218Q427 213 420 202Q414 190 408 180Q402 171 402 171Q379 135 352 111Q324 87 292 69Q282 62 264 56Q247 50 232 47Q218 44 215 46Q204 54 195 80Q190 67 186 54Q181 42 180 38Q179 31 178 26Q177 22 173 19Q173 19 172 15Q171 11 165 3Q155 -26 149 -42Q143 -59 140 -70Q136 -80 133 -92Q131 -119 120 -149Q110 -179 91 -185ZM240 140Q244 142 254 147Q265 152 278 160Q291 167 302 174Q314 182 319 188Q327 197 328 202Q329 208 333 221Q336 229 340 239Q344 249 347 258Q351 266 350 274Q350 283 344 289Q340 290 326 286Q311 282 292 270Q274 258 256 235Q235 208 228 186Q221 165 225 152Q229 140 240 140Z"/><path id="cv-l.ss02" d="M107 -30Q94 -25 86 -14Q78 -4 77 16Q76 29 78 54Q80 80 85 106Q85 108 86 110Q86 113 86 114Q87 118 88 126Q89 135 90 140Q92 146 92 141L98 168Q102 186 107 205Q112 224 116 238Q121 253 122 255Q122 255 126 266Q129 278 133 290Q149 340 164 373Q178 406 189 421Q190 424 192 428Q194 433 195 436Q195 447 196 452Q198 457 201 461Q203 465 207 472Q211 478 216 488L220 499Q226 512 235 530Q244 547 248 556Q251 565 260 578Q269 590 280 594L279 595Q284 604 298 610Q312 615 321 615Q335 615 342 607Q350 599 350 585Q350 570 350 564Q349 557 342 549H343Q345 551 342 543Q339 535 337 532Q335 527 332 521Q330 515 327 512Q324 508 311 484Q298 461 282 430Q266 398 252 368Q237 339 231 323L227 308Q225 304 225 302Q222 295 219 288Q216 281 213 276L197 214L193 193L184 170L178 151Q176 145 175 138Q174 131 171 128Q171 127 170 126Q170 124 170 123Q166 107 156 78Q147 49 145 14Q145 13 144 12Q144 11 144 10Q141 -11 132 -22Q122 -34 107 -30Z"/><path id="cv-e.ss01" d="M201 -18Q146 -18 116 14Q87 46 87 112Q87 148 100 191Q114 234 136 275Q159 316 186 346Q213 377 240 389Q250 394 262 396Q273 399 284 399Q296 399 310 398Q325 396 338 391Q361 384 378 364Q396 344 396 306Q396 296 394 284Q392 273 387 262Q374 229 348 199Q321 169 292 157Q284 153 276 152Q269 150 261 150Q240 150 224 156Q207 162 193 172L185 179L180 169Q173 150 170 137Q168 124 168 118Q168 106 169 94Q170 81 175 73Q179 68 186 65Q192 62 202 62Q208 62 214 62Q219 63 223 64Q241 68 252 78Q264 87 277 94L281 96L280 99Q297 108 303 110Q309 113 312 115Q316 119 321 119Q335 121 348 112Q362 102 362 88Q362 82 354 69Q345 56 332 44Q320 31 307 24Q304 23 301 22Q298 20 295 18H296Q287 6 278 6H270Q266 -1 244 -10Q222 -18 201 -18ZM253 223Q262 223 270 226Q277 229 284 233Q308 250 315 277Q322 304 310 318Q308 321 305 322Q302 324 298 324Q287 324 274 317Q260 310 247 297Q234 284 223 266L210 245Q212 246 214 246Q215 247 216 247Q225 247 228 241Q231 235 236 229Q240 223 253 223Z"/><clipPath id="clip1"><rect x="142.1" y="20.8" width="110.7" height="76.0"><animate attributeName="width" values="0;0;110.7" keyTimes="0;0.333;1" dur="0.6000000000000001s" fill="freeze"/></rect></clipPath><path id="ph-S" d="M266 662Q331 662 376 640Q422 618 422 584Q422 569 414 558Q407 547 392 547Q378 547 330 570Q282 592 242 592Q203 592 161 567Q119 542 119 506Q119 457 170 434Q208 417 279 404Q350 390 395 348Q440 307 440 223Q440 95 363 34Q320 0 242 0Q163 0 85 43Q34 70 34 97Q34 107 42 119Q51 131 66 139Q81 147 94 142Q106 136 134 122Q162 108 175 103Q217 87 254 87Q291 87 326 124Q360 160 360 213Q360 283 290 311Q256 325 213 332Q124 348 79 386Q34 423 34 499Q34 575 99 618Q164 662 266 662Z"/><path id="ph-w" d="M121 1Q87 1 56 134Q24 266 24 431Q24 448 38 458Q53 467 65 467Q77 467 84 460Q92 452 92 440Q92 284 145 140Q153 152 170 188Q187 225 202 242Q217 259 238 259Q259 259 282 228Q305 197 322 162Q338 126 340 124Q367 208 367 280L361 432Q360 447 375 458Q390 468 404 468Q433 468 433 355V300Q433 166 392 61Q370 1 337 1Q318 1 302 26Q286 50 266 95Q246 140 235 157L205 98Q188 63 179 48Q170 32 154 16Q138 1 121 1Z"/><path id="ph-i" d="M104 632Q122 632 138 615Q154 598 154 580Q154 561 136 542Q119 523 100 523Q81 523 66 539Q50 555 50 580Q50 628 102 632Q103 632 104 632ZM146 108 147 38Q147 19 132 6Q117 -6 100 -6Q75 -6 74 19Q61 338 61 372Q61 406 64 455Q66 473 87 473Q140 473 147 430Q150 408 150 395L146 332Z"/><path id="ph-f" d="M321 619Q315 619 287 630Q259 640 251 640Q216 640 209 598Q207 583 207 536Q207 490 207 460H277Q321 458 321 429Q321 387 261 385Q252 384 239 384Q226 384 209 385Q211 345 218 242Q225 140 225 43Q225 23 209 11Q193 -1 176 -1Q149 -1 149 31Q149 121 142 206Q135 291 132 385Q42 385 27 403Q21 410 21 421Q21 447 42 455Q64 463 92 463Q120 463 132 463Q135 626 150 665Q159 689 174 700Q190 712 202 714Q213 715 254 715Q296 715 323 703Q350 691 350 655Q350 619 321 619Z"/><path id="ph-t" d="M63 467 113 466Q130 466 132 467V672Q133 689 149 701Q165 713 179 713Q193 713 202 704Q210 695 209 676Q208 657 208 468L325 472Q355 472 355 437Q355 411 340 398Q324 385 306 384Q289 383 272 383L211 384Q211 343 220 222Q228 101 233 66Q238 30 235 20Q232 9 224 5Q211 -1 189 -1Q167 -1 163 23Q143 154 136 383Q127 382 67 382Q7 382 7 417Q7 467 63 467Z"/><path id="ph-comma" d="M149 76Q149 10 128 -43Q121 -62 108 -75Q94 -88 79 -88Q46 -88 46 -53Q46 -42 49 -32Q80 3 80 73Q86 104 113 104Q140 104 149 76Z"/><path id="ph-U" d="M493 649Q510 562 510 454V378Q510 292 507 276Q504 261 501 242Q498 223 496 213Q493 203 488 186Q477 149 457 120Q427 64 378 32Q329 0 278 0Q228 0 174 44Q121 88 87 154Q35 256 35 389Q35 436 49 612Q56 628 70 640Q85 653 100 653Q122 653 127 623Q113 450 113 404Q113 294 156 209Q183 153 222 116Q262 78 300 78Q363 78 408 176Q427 210 429 285Q429 305 431 313L433 445Q433 537 419 613Q419 634 433 650Q447 666 464 666Q481 666 493 649Z"/><path id="ph-I" d="M160 623Q161 507 164 276Q164 135 156 37Q154 22 138 10Q121 -1 104 -1Q76 -1 76 28Q86 128 86 276L80 612Q84 626 100 636Q115 646 135 646Q155 646 160 623Z"/><path id="ph-A" d="M259 659Q284 659 301 637Q318 615 345 546Q408 383 468 35Q469 31 469 24Q469 16 460 8Q450 -1 432 -1Q415 -1 403 8Q391 16 387 36Q383 55 372 112Q348 239 340 244Q328 251 260 259Q193 267 171 267Q149 267 145 263Q127 247 96 20Q92 1 58 1Q24 1 24 30Q24 102 77 305Q130 508 165 574Q209 659 259 659ZM255 548Q240 548 203 460Q166 371 166 350Q166 345 168 343Q176 335 231 329Q286 323 304 323Q322 323 324 326Q326 328 326 342Q326 355 299 452Q272 548 255 548Z"/><path id="ph-p" d="M196 1Q162 1 133 24Q133 24 120 35V-265Q114 -285 99 -298Q84 -312 67 -312Q41 -312 41 -277V420Q47 446 56 457Q64 468 82 468Q101 468 106 460Q112 451 120 413Q124 433 152 450Q180 467 227 467Q329 467 372 393Q415 319 415 218Q415 118 356 60Q298 1 196 1ZM120 301V115Q126 112 134 105Q163 79 197 79Q335 79 335 221Q335 342 273 374Q247 388 209 388Q172 383 146 356Q120 328 120 301Z"/><path id="ph-K" d="M73 114Q73 191 64 374Q54 558 47 607Q47 629 62 646Q77 662 96 662Q120 662 128 632Q144 532 148 344Q238 427 288 486Q337 545 392 637Q408 664 439 664Q455 664 466 656Q476 647 476 635Q476 603 420 524Q363 446 300 372Q384 288 444 178Q452 164 465 143Q478 122 485 110Q504 77 504 54Q504 31 492 16Q481 2 464 2Q447 2 420 46Q393 91 342 172Q292 254 236 316Q180 262 152 241Q155 177 155 134Q155 92 153 66Q147 1 100 1Q71 1 73 36Z"/><path id="ph-D" d="M59 32Q44 43 44 56Q44 70 55 79Q36 222 36 407Q36 463 41 625Q46 640 62 651Q77 662 91 662Q105 662 108 661Q251 621 357 506Q463 392 468 232Q468 56 322 11Q280 -2 234 -2Q187 -2 152 5Q156 -3 156 -16Q156 -30 140 -42Q123 -55 100 -55Q78 -55 72 -28ZM119 415Q119 240 139 83Q163 76 220 76Q277 76 330 95Q382 114 385 151Q388 179 388 194Q388 324 318 424Q249 524 124 576Q119 458 119 415Z"/><path id="ph-a" d="M317 467Q361 467 361 392Q361 384 361 375L359 305Q358 272 358 240L373 14Q373 -11 322 -11Q319 -11 308 -11Q296 -11 292 -2Q287 7 290 20Q294 33 288 49Q242 0 166 0Q25 0 25 218Q25 339 70 401Q116 463 201 463Q241 463 281 449Q294 467 317 467ZM213 376Q156 376 128 343Q100 310 100 222Q100 74 180 74Q201 74 226 93Q252 112 262 136Q281 190 281 254Q281 318 266 347Q250 376 213 376Z"/><path id="ph-V" d="M295 19Q254 140 210 240Q166 341 97 493Q73 546 67 558Q61 571 61 586Q61 602 76 617Q92 632 111 632Q130 632 143 613L191 503Q292 270 335 164L353 234Q375 326 399 416Q467 662 533 662Q545 662 554 655Q562 648 562 636Q562 624 550 601Q537 578 518 518Q499 458 494 448Q490 437 446 279Q403 121 372 31Q367 15 353 4Q339 -6 322 -6Q304 -6 295 19Z"/><path id="ph-F" d="M210 648 321 650Q395 650 395 611Q395 597 391 592Q387 586 385 583Q383 580 377 578Q365 574 357 573Q349 572 346 572Q335 570 309 569Q283 568 234 568Q184 568 112 572V388H316Q327 388 336 378Q346 368 346 356Q346 310 307 310H112L116 48Q116 -3 82 -3Q47 -3 41 43Q38 58 38 298Q37 537 35 573Q-2 569 -2 615Q-2 627 8 642Q18 656 26 657Q33 658 44 658Q56 658 101 654Q163 648 210 648Z"/><path id="ph-o" d="M215 466Q287 466 334 397Q380 328 380 232Q380 135 332 67Q285 -1 206 -1Q128 -1 80 68Q32 138 32 223Q32 332 76 397Q123 466 215 466ZM203 384Q161 384 134 340Q107 296 107 247Q107 171 137 131Q167 91 205 91Q273 91 292 150Q300 178 300 220Q300 384 203 384Z"/><path id="ph-u" d="M113 440Q107 362 107 300Q107 237 122 156Q137 76 155 76Q182 76 224 106Q265 136 283 169Q271 313 271 416Q271 437 284 452Q298 467 317 467Q348 467 348 425Q348 354 358 214Q369 74 380 36Q382 28 382 18Q382 7 368 -2Q355 -12 334 -12Q312 -12 305 12Q303 32 295 72Q225 -1 154 -1Q121 -1 95 24Q69 49 54 92Q28 175 28 248Q28 321 36 428Q40 445 53 456Q66 468 80 468Q93 468 100 463Q108 458 110 454Q111 450 113 440Z"/><path id="ph-n" d="M76 31 65 437Q65 456 78 468Q91 480 104 480Q136 480 141 453Q145 426 145 397Q199 468 280 468Q404 468 404 185Q404 159 404 106Q404 54 398 30Q391 0 355 0Q331 0 331 32L332 88Q332 204 324 246Q317 289 310 314Q293 368 255 368Q205 368 185 332Q163 293 159 240Q152 147 152 43Q152 23 137 11Q122 -1 101 -1Q76 -1 76 31Z"/><path id="ph-d" d="M277 468 276 661Q276 715 310 715Q345 715 349 685Q351 672 354 528Q357 384 364 258Q370 132 370 23Q370 -7 325 -7Q295 -7 295 35Q252 1 193 1Q118 1 72 57Q25 113 25 195Q25 277 58 348Q92 420 163 451Q207 470 248 470Q263 470 277 468ZM138 330Q106 276 106 216Q106 157 130 120Q153 82 196 82Q240 82 265 125Q290 168 290 235Q290 310 282 332Q275 353 265 364Q255 376 244 378Q232 381 216 381Q200 381 177 369Q154 357 138 330Z"/><path id="ph-X" d="M63 -5Q29 -5 29 24Q29 40 37 56Q45 65 114 140Q182 216 240 288Q104 500 67 565Q62 577 62 592Q62 606 76 621Q91 636 110 636Q128 636 139 619Q239 455 300 360Q404 482 497 632Q514 662 545 662Q557 662 566 654Q574 647 574 636Q574 625 568 608Q493 483 344 295Q430 157 503 72Q511 56 511 42Q511 28 496 13Q482 -2 464 -2Q446 -2 433 8Q388 65 283 224Q216 145 92 7Q76 -5 63 -5Z"/><path id="ph-c" d="M330 359Q323 359 292 370Q260 382 251 382Q193 382 152 340Q111 297 111 227Q111 157 134 122Q156 88 211 88Q233 88 286 114Q340 139 353 139Q366 139 374 131Q382 123 382 111Q382 87 352 60Q321 34 276 16Q231 -1 195 -1Q115 -1 70 62Q24 125 24 234Q24 301 60 356Q95 411 150 438Q205 466 257 466Q309 466 340 454Q372 441 372 420Q372 400 360 380Q349 359 330 359Z"/><path id="ph-e" d="M182 463Q235 463 283 432Q331 401 331 356Q331 310 292 268Q253 225 188 216Q160 212 104 212Q115 127 147 100Q157 89 174 89Q236 89 278 128Q320 168 338 168Q346 168 362 153Q378 138 378 125Q378 99 315 50Q287 27 248 12Q208 -4 174 -4Q87 -4 46 108Q20 177 20 260Q20 343 59 403Q98 463 182 463ZM187 394Q149 394 122 351Q112 336 103 283Q243 283 243 352Q243 394 187 394Z"/><clipPath id="clip2"><rect x="295.2" y="34.8" width="582.3" height="56.0"><animate attributeName="width" values="0;0;582.3" keyTimes="0;0.545;1" dur="1.1s" fill="freeze"/></rect></clipPath><path id="cv-w" d="M170 30Q155 30 140 52Q125 75 116 108Q108 141 110 173Q110 205 114 224Q117 244 121 263Q124 269 124 273Q125 277 126 286Q128 295 133 316Q137 333 142 344Q146 355 149 359Q161 375 176 378Q191 382 204 375Q216 368 218 354Q224 349 224 332Q225 314 222 296Q219 277 213 269Q211 264 208 243Q206 222 204 199Q201 176 198 162Q195 144 200 140Q206 135 220 148Q235 162 259 197Q279 227 288 244Q298 261 304 275Q309 289 316 308Q321 324 326 334Q330 344 334 348Q345 364 364 362Q382 359 394 351Q406 339 408 318Q411 298 399 274Q391 258 384 236Q376 214 372 192Q367 170 367 154Q367 134 372 130Q378 127 386 127Q398 127 409 136Q420 144 441 166Q450 175 463 193Q476 211 488 231Q501 251 510 266Q518 282 518 286Q518 292 527 303Q533 311 536 316Q540 320 550 325Q558 329 568 326Q578 324 585 316Q590 312 592 296Q595 281 595 269Q592 258 586 238Q580 219 574 202Q567 184 562 178Q558 174 548 164Q538 153 530 141Q505 111 494 102Q483 93 475 85Q454 64 427 52Q400 39 376 38Q352 36 338 46Q307 62 307 100Q307 108 304 114Q302 121 302 121Q298 121 292 119Q285 117 278 105Q269 88 248 70Q226 53 204 42Q182 30 170 30Z"/><path id="cv-e" d="M293 20Q263 3 230 0Q196 -2 167 10Q138 21 120 44Q110 57 101 86Q92 114 98 163Q104 209 126 256Q149 303 182 339Q215 375 254 388Q268 393 282 396Q297 398 321 396Q344 393 362 384Q380 376 388 366Q404 350 409 335Q414 320 413 306Q408 274 384 237Q361 200 319 182Q302 175 279 173Q256 171 216 179Q192 184 184 174Q177 164 178 135Q180 117 186 104Q193 90 211 85Q234 81 244 84Q254 88 269 95Q277 100 284 106Q292 112 300 118Q307 124 312 127Q317 131 322 132Q327 133 332 133Q343 132 353 121Q363 110 366 100Q366 92 356 78Q346 63 330 48Q313 32 293 20ZM280 243Q287 246 300 257Q314 268 325 280Q336 293 336 300Q336 311 322 319Q307 327 284 322Q276 320 265 311Q254 302 243 290Q232 279 224 268Q216 258 213 252Q217 247 229 244Q241 241 256 241Q270 241 280 243Z"/><path id="cv-b.ss01" d="M195 14Q182 11 161 18Q140 26 120 38Q101 49 94 56Q87 64 90 70Q93 77 100 77Q104 77 113 86Q122 94 124 117Q126 131 130 142Q133 152 133 156Q134 159 136 172Q137 186 141 196Q145 214 153 242Q161 271 170 298Q178 326 183 341Q185 352 192 369Q199 386 204 396Q214 424 232 464Q249 504 268 544Q287 585 302 614Q316 642 320 648Q328 656 346 654Q364 652 375 641Q384 630 392 618Q400 606 388 592Q384 585 375 570Q366 556 361 549Q353 525 342 502Q330 479 317 450Q304 422 289 380Q280 361 274 342Q268 324 264 319Q258 297 252 286Q245 275 241 251Q241 251 252 261Q262 271 277 286Q316 328 347 350Q378 372 404 373Q418 374 434 366Q451 358 465 346Q479 335 484 322Q492 304 492 276Q492 247 484 217Q475 187 457 164Q446 145 430 128Q415 110 404 102Q394 93 384 84Q375 76 369 71Q356 62 348 58Q340 53 326 48Q305 33 268 26Q231 19 195 14ZM220 90Q227 90 246 93Q264 96 280 108Q327 132 356 161Q384 190 396 219Q408 248 406 271Q404 294 382 286Q359 277 312 230Q290 210 274 192Q258 174 241 154Q234 143 228 136Q221 130 220 122Q213 90 220 90Z"/><clipPath id="clip3"><rect x="158.0" y="72.8" width="94.8" height="76.0"><animate attributeName="width" values="0;0;94.8" keyTimes="0;0.579;1" dur="0.9500000000000001s" fill="freeze"/></rect></clipPath><path id="ph-T" d="M44 649 449 655Q478 646 478 626Q478 576 437 576Q362 576 278 572Q273 486 273 442Q273 399 273 387L277 36Q277 5 261 0Q249 -4 231 -4Q202 -4 199 29Q193 106 193 316Q193 527 199 570Q178 569 137 569Q96 569 35 570Q19 570 10 580Q1 590 1 604Q1 619 14 633Q26 647 44 649Z"/><path id="ph-y" d="M357 462Q370 462 382 453Q395 444 395 433Q395 404 310 119Q225 -166 184 -281Q175 -308 156 -308Q137 -308 126 -294Q115 -281 115 -255Q115 -229 148 -130Q182 -32 189 -5Q164 37 20 415Q18 420 18 428Q18 436 30 449Q42 462 63 462Q84 462 97 441Q111 405 143 316Q175 226 192 186Q210 146 226 103Q240 150 274 286Q308 421 313 440Q317 462 357 462Z"/><path id="ph-r" d="M167 146 168 43Q168 25 152 10Q135 -5 119 -5Q96 -5 90 31Q89 39 82 178Q75 316 55 395Q46 433 46 440Q46 473 86 473Q103 473 113 460Q123 447 126 434Q128 420 130 397Q132 374 133 368Q154 418 196 443Q238 468 288 468Q370 468 370 426Q370 405 356 392Q341 380 322 380Q237 380 202 326Q167 272 167 146Z"/><path id="ph-R" d="M43 20Q40 152 40 283L37 535Q37 611 104 639Q158 664 232 664Q270 664 314 646Q357 627 392 592Q426 556 426 514Q426 473 388 426Q350 378 294 342Q238 305 185 287Q278 222 347 148Q416 73 416 32Q416 19 403 8Q390 -4 372 -4Q353 -4 340 12Q318 65 256 124Q195 182 113 235L119 43Q119 25 103 10Q87 -4 68 -4Q50 -4 43 20ZM116 569Q115 518 115 343Q182 346 266 399Q349 452 349 494Q349 537 307 560Q265 583 208 583Q150 583 116 569Z"/><path id="ph-N" d="M491 617Q491 226 494 144Q498 63 498 61Q498 39 486 20Q474 0 460 0Q445 0 438 2Q430 3 424 5Q418 7 412 13L402 23Q398 27 392 38Q385 50 381 57Q377 64 368 82Q360 99 332 153Q303 207 280 250Q201 395 133 479Q133 154 115 28Q112 4 78 4Q62 4 52 12Q41 20 41 38Q41 56 48 236Q56 416 56 460Q56 505 56 517Q56 589 67 598Q78 607 90 607Q145 607 258 427Q280 392 342 280Q404 169 416 143L404 558Q404 644 423 656Q433 662 449 662Q465 662 478 648Q491 635 491 617Z"/><path id="ph-x" d="M151 449 233 305Q267 342 297 387L339 449Q351 466 368 466Q386 466 397 456Q408 445 408 430Q408 416 366 352Q324 289 276 229Q285 215 316 164Q347 113 384 67Q391 56 391 40Q391 25 379 12Q367 -1 352 -1Q327 -1 287 54Q247 110 216 176Q186 135 158 90Q129 45 114 24Q98 4 80 4Q61 4 50 15Q40 26 40 42Q40 81 180 239Q163 272 118 342Q73 412 73 428Q73 444 86 456Q100 468 120 468Q141 468 151 449Z"/><path id="ph-period" d="M164 60Q164 38 148 20Q132 1 110 1Q89 1 72 12Q55 24 55 48Q55 72 70 96Q86 120 108 120Q129 120 145 104Q161 88 164 60Z"/><path id="ph-j" d="M111 627Q129 627 145 610Q161 593 161 574Q161 556 144 537Q126 518 107 518Q88 518 72 534Q57 550 57 575Q57 623 109 627Q110 627 111 627ZM158 443Q172 320 172 210Q172 100 165 -10Q158 -121 133 -181Q99 -260 10 -260Q-35 -260 -68 -232Q-101 -204 -101 -165Q-101 -144 -86 -133Q-71 -122 -53 -122Q-35 -122 -26 -131Q-17 -140 -14 -151Q-4 -180 20 -180Q45 -180 62 -141Q80 -102 86 -35Q91 32 91 107Q91 342 79 431Q77 447 90 458Q103 468 129 468Q155 468 158 443Z"/><path id="ph-s" d="M352 396Q352 379 339 369Q326 359 316 359Q307 359 302 360Q296 360 262 378Q227 396 198 396Q169 396 148 382Q128 367 128 339Q128 311 152 295Q175 279 234 268Q293 256 324 235Q356 214 356 157Q356 74 312 40Q269 5 207 5Q145 5 102 22Q58 39 58 73Q58 112 97 112Q107 112 141 98Q175 84 208 84Q242 84 260 106Q277 127 277 155Q277 183 254 196Q231 208 184 216Q137 224 115 233Q55 257 55 340Q55 399 97 434Q139 469 194 469Q250 469 301 449Q352 429 352 396Z"/><path id="ph-l" d="M78 708Q121 708 121 673Q121 646 116 532Q112 418 112 328Q112 238 119 183Q131 87 153 87Q175 87 186 118Q191 130 202 140Q213 149 230 149Q265 149 265 90Q265 58 230 26Q196 -5 162 -5Q128 -5 108 6Q87 18 74 41Q62 64 54 86Q47 107 44 138Q38 188 36 298Q33 409 33 510Q33 610 36 648Q38 685 48 696Q57 708 78 708Z"/><path id="ph-C" d="M336 654Q403 654 484 628Q502 614 502 598Q502 581 486 568Q469 556 448 556Q394 570 347 570Q239 570 183 506Q127 442 127 316Q127 190 193 119Q227 82 274 82Q321 82 424 132Q460 149 472 149Q498 149 498 122Q498 95 473 77Q387 32 339 16Q291 1 256 1Q184 1 133 54Q42 152 42 322Q42 491 128 572Q215 654 336 654Z"/><path id="ph-f_l.liga" d="M473 149Q508 149 508 90Q508 58 474 26Q439 -5 405 -5Q371 -5 350 6Q330 18 318 41Q305 64 298 86Q290 107 286 138Q281 188 280 232Q280 275 278 393Q260 385 245 384Q230 384 217 384Q204 384 188 385Q190 345 197 242Q204 140 204 43Q204 23 188 11Q172 -1 155 -1Q128 -1 128 31Q128 121 121 206Q114 291 111 385Q21 385 6 403Q0 410 0 421Q0 447 22 455Q43 463 71 463Q99 463 111 463Q114 626 129 665Q138 689 154 700Q169 712 180 714Q192 715 233 715Q274 715 300 704Q308 708 324 708Q341 708 352 699Q364 690 364 668Q364 646 360 532Q355 418 355 328Q355 238 362 183Q374 87 396 87Q418 87 430 118Q434 130 445 140Q456 149 473 149ZM256 460Q268 460 277 457Q277 583 278 625Q236 640 230 640Q195 640 188 598Q186 583 186 536Q186 490 186 460Z"/><path id="ph-W" d="M575 667Q596 667 604 637Q598 536 591 494Q584 451 580 419Q575 387 574 375Q572 363 565 326Q558 289 550 252Q543 216 542 209Q540 202 523 120Q506 37 498 18Q489 0 468 0Q448 0 436 12Q390 75 349 168Q339 192 326 220Q314 248 308 262L299 283Q278 247 241 161Q204 75 176 23Q158 0 136 0Q90 0 66 245Q66 246 64 256Q63 266 60 291Q58 316 54 346Q51 377 29 599Q29 619 44 636Q59 652 77 652Q99 652 107 623Q134 298 161 143Q169 157 202 236Q235 314 262 360Q289 407 314 407Q331 407 343 389Q406 210 451 137Q452 148 463 197L476 261Q476 267 478 278Q481 289 482 300Q484 310 486 319L497 382Q521 530 527 625Q531 642 546 654Q560 667 575 667Z"/><path id="ph-k" d="M395 45Q395 -2 352 -2Q334 -2 303 86Q272 175 220 223Q215 216 178 184Q140 151 133 144V44Q131 29 128 21Q125 13 114 6Q104 -1 86 -1Q59 -1 59 32Q59 125 51 320Q43 516 43 671Q43 690 58 701Q74 712 91 712Q114 712 119 683V506Q119 474 120 458Q121 442 122 410Q124 344 129 261Q158 283 204 330Q249 378 272 412Q308 469 338 469Q346 469 354 465Q375 453 375 437Q375 421 361 395Q325 333 278 282Q323 232 368 139Q395 79 395 45Z"/><clipPath id="clip4"><rect x="295.2" y="86.8" width="640.9" height="56.0"><animate attributeName="width" values="0;0;640.9" keyTimes="0;0.655;1" dur="1.45s" fill="freeze"/></rect></clipPath><path id="cv-b" d="M229 6Q209 8 198 16Q186 25 180 38Q172 47 170 52Q169 57 170 61Q175 61 179 62Q183 62 184 65Q184 68 188 69Q191 70 195 69Q214 68 242 82Q269 96 302 122Q335 147 368 177Q394 211 404 227Q415 243 416 252Q416 260 411 269Q407 277 392 277Q377 277 346 257Q303 230 277 207Q251 184 229 155Q221 145 212 134Q202 122 196 114Q189 106 189 106Q189 102 178 96Q166 90 158 90Q154 92 148 98Q141 103 139 112Q130 119 124 124Q118 130 118 143Q118 151 120 163Q123 175 128 194Q134 220 141 248Q148 277 154 298Q161 318 164 320Q164 320 168 329Q172 338 172 350Q174 362 178 371Q183 380 183 384Q187 387 195 408Q203 429 215 463Q215 466 222 482Q229 499 239 522Q249 544 260 568Q270 593 277 612Q289 629 298 646Q306 664 313 667Q318 668 330 663Q343 658 356 650Q369 642 374 634Q377 629 378 624Q378 619 373 608Q368 596 356 570Q344 545 322 499Q294 439 278 399Q263 359 254 330Q244 301 234 275L229 253L255 282Q265 292 276 301Q287 310 300 319Q308 325 322 332Q335 338 348 343Q361 348 367 349Q370 350 388 354Q405 357 422 357Q444 357 460 342Q477 326 490 304Q501 283 498 250Q495 218 481 195Q476 191 471 184Q466 178 466 174Q465 167 448 146Q431 124 414 105Q396 86 370 68Q344 49 318 34Q293 20 275 14Q267 13 252 10Q237 8 229 6Z"/><path id="cv-c.ss01" d="M188 8Q166 8 156 10Q145 12 140 16Q135 20 127 27Q123 35 113 48Q103 60 99 64Q95 79 96 105Q98 131 105 161Q112 191 122 215Q126 223 129 231Q132 239 132 239Q132 244 144 263Q157 282 172 303Q188 324 198 333Q205 341 220 350Q234 359 245 363Q256 367 275 374Q294 380 309 380Q323 380 339 374Q355 368 366 353Q384 335 389 310Q394 285 390 267Q385 247 370 234Q355 222 338 222Q321 221 308 235Q304 243 304 248Q304 254 308 265Q312 279 312 290Q312 301 303 301Q290 301 282 294Q274 286 258 269Q251 261 240 246Q229 231 218 214Q208 196 200 178Q189 145 186 136Q184 126 184 126Q184 122 183 118Q182 115 182 111Q182 99 196 92Q207 85 214 86Q222 86 244 96Q260 104 274 117Q289 130 305 140Q316 147 322 152Q329 157 329 153Q329 149 332 149Q335 149 339 153Q345 161 354 160Q363 158 370 154Q378 150 378 147Q376 138 382 132Q382 128 380 122Q377 115 373 111Q368 104 358 91Q349 78 341 68Q333 58 333 58Q329 59 326 56Q322 53 318 49Q310 42 303 38Q296 35 292 35Q285 31 282 30Q278 29 278 25Q268 15 242 12Q216 8 188 8Z"/><path id="cv-k.ss02" d="M305 -8Q301 -4 293 2Q285 9 281 16Q279 19 271 28Q263 36 255 44Q247 53 244 55Q242 60 237 66Q232 73 226 80Q220 88 212 95Q201 110 194 118Q188 126 184 126Q184 126 178 108Q172 89 165 66Q158 42 153 27Q149 20 145 16Q141 12 138 10Q134 8 130 8Q126 7 122 7Q111 7 94 17Q77 27 77 46Q73 60 87 107Q101 154 130 227Q134 242 140 258Q146 275 150 286Q165 335 183 376Q201 418 223 469Q232 487 236 496Q240 504 245 514Q250 523 260 542Q282 583 295 606Q308 629 315 640Q322 651 327 656Q332 661 343 663Q354 665 366 664Q377 662 382 656Q390 648 394 640Q398 633 394 620Q391 608 376 583Q368 565 363 557Q358 549 353 541Q348 533 337 513Q336 509 334 504Q331 500 328 496Q325 493 322 493Q322 490 319 481Q316 472 312 464Q309 453 302 440Q296 428 293 420Q285 401 272 374Q258 348 255 332Q255 330 258 332Q261 333 266 336Q270 340 274 342Q297 360 324 376Q350 392 368 395Q378 398 386 398Q394 399 401 398Q408 397 415 394Q426 387 435 368Q444 349 448 330Q448 321 440 298Q431 274 420 252Q408 229 398 221Q393 219 390 217Q386 215 384 214Q383 212 383 212Q383 208 380 202Q376 196 368 192Q364 188 359 182Q354 176 354 173Q354 173 354 170Q354 168 354 168Q350 168 348 168Q345 167 334 159Q323 148 318 147Q314 146 306 143Q302 139 296 138Q291 137 291 133Q291 129 299 118Q307 107 318 94Q330 81 341 70Q352 59 358 55Q365 52 368 44Q371 36 372 27Q372 18 370 10Q369 2 367 -2Q365 -4 354 -8Q342 -11 328 -12Q315 -13 305 -8ZM247 183Q252 187 266 198Q279 209 295 222Q311 236 324 249Q338 262 344 269Q351 276 359 292Q367 308 362 318Q361 322 347 313Q333 304 311 293Q294 283 274 270Q253 258 235 244Q217 229 207 212Q205 205 211 196Q217 187 227 182Q237 178 247 183Z"/><path id="cv-n" d="M443 24Q421 26 406 34Q392 41 383 64Q379 80 380 98Q380 115 382 132Q384 148 384 160Q384 162 384 168Q384 174 384 179Q382 194 376 198Q371 201 358 196Q337 186 312 170Q288 153 262 132Q235 110 207 86Q185 62 174 47Q164 32 153 32Q145 28 136 34Q127 40 117 48Q110 56 100 68Q91 81 89 85Q89 101 92 114Q94 127 100 141Q105 155 113 173Q117 180 120 188Q124 195 129 204Q133 218 140 236Q148 254 155 270Q166 296 172 315Q178 334 182 356Q181 358 183 362Q185 366 189 367H190H191Q198 372 218 368Q237 365 247 357Q268 339 267 310Q266 281 237 234Q230 218 222 204Q215 191 215 186Q215 186 223 192Q231 198 242 206Q253 215 261 220Q266 225 283 238Q300 252 320 267Q340 282 352 290Q363 298 380 306Q397 315 401 315Q411 315 426 308Q440 301 452 292Q465 282 467 274Q467 270 466 264Q465 257 465 252Q464 236 464 214Q465 191 465 168Q465 146 461 128Q461 128 462 126Q463 125 464 122Q463 121 464 118Q464 116 464 116Q466 109 468 102Q471 95 475 86Q479 78 484 65Q483 52 470 40Q456 27 443 24Z"/><path id="cv-d.ss01" d="M387 1Q372 0 360 0Q347 0 340 4Q322 19 316 28Q311 37 311 48Q312 62 312 76Q312 91 312 99Q308 103 296 90Q284 77 268 65Q237 30 213 14Q189 -1 169 -4Q149 -6 129 -4Q111 -2 98 14Q84 30 78 53Q71 76 73 98Q78 139 91 172Q104 206 130 243Q142 259 162 278Q183 297 207 314Q231 330 250 337Q279 350 298 349Q318 348 337 343Q351 336 360 336Q368 336 372 346Q378 354 381 366Q384 378 391 389L413 454Q424 481 439 516Q454 551 473 594Q496 633 512 635Q529 637 547 617Q559 605 560 588Q562 570 551 547Q544 536 536 520Q528 503 517 481Q506 455 494 429Q483 403 471 372Q467 356 460 335Q454 314 450 297Q447 281 444 268Q440 254 436 254Q428 247 421 224Q414 202 410 177Q405 152 402 136Q400 124 399 102Q398 81 398 62Q398 42 398 35Q398 16 396 8Q393 1 387 1ZM161 80Q184 80 204 100Q225 119 250 141Q265 156 281 174Q297 193 310 211Q324 229 332 242Q340 255 340 259Q340 264 332 268Q325 272 315 274Q305 277 297 275Q273 268 258 254Q244 240 217 210Q190 177 174 147Q158 117 154 98Q151 80 161 80Z"/><clipPath id="clip5"><rect x="100.5" y="124.8" width="152.3" height="76.0"><animate attributeName="width" values="0;0;152.3" keyTimes="0;0.692;1" dur="1.2999999999999998s" fill="freeze"/></rect></clipPath><path id="ph-P" d="M57 102Q50 205 50 380Q50 556 55 608Q60 640 99 650Q138 661 202 661Q296 661 360 620Q425 580 425 501Q425 436 407 392Q389 349 362 328Q318 294 232 294Q195 294 135 304Q140 104 139 52Q138 0 104 0Q82 0 76 8Q70 16 68 20Q66 23 64 30Q62 37 61 42Q60 46 60 55Q59 64 58 69Q57 84 57 102ZM134 577Q130 518 130 468Q130 419 134 379Q161 376 171 374Q197 371 216 371Q234 371 240 372Q247 372 266 374Q284 377 292 383Q300 389 312 399Q324 409 329 422Q342 458 342 498Q342 539 298 562Q254 586 204 586Q154 586 134 577Z"/><path id="ph-h" d="M145 324 153 88Q153 44 149 37Q147 19 138 9Q128 -1 101 -1Q88 -1 80 16Q72 32 71 53Q64 229 52 384Q41 538 41 671Q41 692 55 704Q69 716 88 716Q116 716 122 668Q127 620 128 548Q130 476 132 443Q182 469 232 469Q348 469 379 367Q397 309 397 218Q397 188 392 124Q386 59 385 40Q384 21 368 10Q353 0 335 0Q307 0 307 30L314 204Q314 226 312 277Q310 328 292 358Q273 388 227 388Q145 388 145 324Z"/><path id="ph-g" d="M325 41Q289 -1 234 -1Q179 -1 139 33Q55 98 55 232Q55 337 113 400Q171 464 256 464Q341 464 372 406Q399 355 399 252L397 170Q397 112 402 10Q408 -93 408 -145Q408 -231 366 -272Q323 -312 236 -312Q184 -312 130 -290Q76 -268 76 -239Q76 -218 88 -207Q99 -196 114 -196Q129 -196 182 -218Q234 -240 257 -240Q329 -240 329 -122Q329 -4 325 41ZM312 142Q324 180 324 252Q324 325 302 354Q281 384 235 384Q189 384 161 342Q133 300 133 236Q133 171 160 133Q186 95 241 95Q296 95 312 142Z"/><path id="ph-Q" d="M494 52 481 67Q410 6 307 -4Q231 2 170 48Q110 95 80 166Q49 236 49 307Q49 443 118 550Q151 603 204 634Q257 665 320 665Q383 665 439 636Q495 607 531 557Q605 453 605 319Q605 218 545 127Q545 126 576 94Q605 62 605 46Q605 31 594 15Q584 -1 560 -1Q536 -1 494 52ZM174 161Q220 78 319 72Q399 79 444 113L365 204Q334 239 334 258Q334 276 347 288Q360 301 380 301Q399 301 431 267Q450 245 482 204Q496 184 500 180Q532 238 532 307Q532 463 428 545Q376 587 305 587Q213 587 169 503Q132 429 132 332Q132 236 174 161Z"/><path id="ph-L" d="M27 139 28 217 37 635Q37 647 50 654Q63 661 83 661Q131 661 131 627Q131 616 120 459Q108 302 108 271Q108 271 108 165Q108 90 118 83Q133 78 153 78L297 88Q344 88 344 54Q344 27 318 14Q293 2 268 0Q243 -1 207 -1Q50 -1 37 9Q30 15 29 54Q28 94 28 110Q27 126 27 139Z"/><clipPath id="clip6"><rect x="295.2" y="138.8" width="374.9" height="56.0"><animate attributeName="width" values="0;0;374.9" keyTimes="0;0.722;1" dur="1.7999999999999998s" fill="freeze"/></rect></clipPath><path id="cv-A" d="M61 -33Q43 -23 42 -11Q40 1 55 31Q70 61 102 124Q126 169 134 194Q143 220 144 231Q145 242 145 245Q143 254 147 260Q151 265 160 269Q165 274 183 287Q201 300 211 318Q220 339 232 361Q243 383 262 416Q281 450 313 504Q333 539 360 583Q388 627 415 663Q426 677 438 685Q450 693 459 693Q481 693 503 682Q525 670 542 653Q559 636 565 621Q570 613 569 587Q568 561 565 524Q562 487 558 445Q555 404 549 348Q543 292 538 231Q532 170 529 114Q526 57 529 15Q530 6 529 -2Q528 -10 528 -15Q522 -21 502 -20Q482 -20 463 -14Q444 -8 442 1Q439 4 438 6Q437 8 438 26Q439 43 441 90L446 243L433 242Q424 242 400 240Q377 238 350 234Q322 231 299 228Q276 224 267 221Q258 221 246 209Q233 197 222 178Q218 164 208 148Q197 133 197 128Q190 123 186 116Q181 109 181 109Q181 103 172 80Q164 56 150 28Q137 -1 123 -22L96 -60ZM300 311Q300 311 311 313Q322 315 338 318Q353 320 365 320Q388 326 404 329Q419 332 429 332Q439 333 445 330Q449 325 452 324Q456 323 456 323Q457 325 460 344Q463 363 467 391Q471 419 475 450Q479 480 482 506Q485 533 486 548Q487 567 485 582Q483 598 483 598Q477 598 460 576Q444 555 422 520Q401 484 380 443Q370 424 362 413Q353 402 348 402Q346 400 338 386Q329 373 320 356Q310 340 304 326Q297 313 300 311Z"/><path id="cv-I.ss01" d="M175 -68Q167 -58 150 -56Q133 -54 98 -57Q84 -59 69 -55Q54 -51 44 -43Q34 -35 36 -26Q37 -14 60 0Q82 15 125 17L168 20L178 41Q181 52 186 72Q192 92 198 115Q202 129 210 156Q217 183 226 213Q235 243 242 267Q249 291 250 300Q254 309 261 333Q268 357 275 382Q282 408 284 418Q307 498 314 530Q321 563 317 563Q313 563 298 562Q283 561 264 558Q246 556 232 554Q218 551 216 549Q211 542 199 548Q187 554 183 564Q182 573 182 586Q183 599 187 602Q194 608 218 615Q241 622 270 628Q299 635 322 639Q339 641 356 648Q373 654 382 662Q391 666 400 668Q408 670 417 669Q425 665 444 666Q464 666 486 668Q542 675 562 670Q582 666 589 643Q594 625 592 612Q589 600 572 601Q563 598 540 596Q516 594 490 592Q456 588 442 584Q429 579 427 575Q423 571 420 567Q418 563 414 558Q416 554 411 534Q406 514 399 491Q395 478 387 452Q379 427 370 399Q362 371 355 348Q348 326 345 319Q342 310 340 300Q337 289 337 284Q321 219 308 174Q296 130 286 96Q277 61 268 24Q268 24 292 26Q317 27 343 31Q378 36 394 36Q411 36 416 32Q422 29 422 24Q423 18 426 11Q447 -15 432 -27Q418 -39 362 -41Q310 -45 280 -48Q251 -50 238 -53Q226 -56 225 -63Q225 -68 217 -74Q209 -81 198 -81Q186 -81 175 -68Z"/><path id="cv-ampersand" d="M667 -54Q668 -66 654 -70Q639 -75 616 -74Q594 -72 571 -66Q548 -59 533 -50Q514 -45 485 -13Q456 19 417 65Q377 43 352 30Q327 16 306 8Q286 -1 258 -9Q192 -15 137 4Q129 7 114 16Q99 25 84 35Q70 45 65 50Q60 53 58 68Q55 84 54 100Q54 116 55 119Q58 128 72 150Q87 173 110 203Q132 233 158 264Q185 295 211 321Q187 356 178 390Q169 424 178 464Q188 503 216 553Q226 569 242 588Q259 607 276 624Q294 642 307 652Q320 662 321 660Q325 653 329 655Q333 657 337 657Q341 659 354 658Q368 658 385 656Q402 654 415 649Q451 645 466 641Q480 637 492 623Q507 612 520 596Q533 580 542 564Q550 549 550 540Q550 527 530 500Q509 473 475 443Q462 427 448 414Q435 402 435 402Q435 398 430 391Q425 384 417 381Q406 371 386 353Q366 335 350 320Q334 305 333 302Q332 300 340 286Q348 273 361 255Q374 237 388 220Q401 202 412 190Q423 179 427 179Q460 211 496 242Q531 272 568 306Q593 332 606 340Q619 348 627 344Q635 341 642 334Q655 332 656 316Q657 301 653 286Q649 272 648 271Q635 254 613 233Q591 212 567 190Q543 169 521 149Q499 129 484 114Q484 114 496 100Q509 85 521 74Q554 40 572 26Q590 13 613 5Q644 -5 655 -18Q666 -32 667 -54ZM186 77Q216 68 238 70Q259 73 284 87Q309 101 347 127L366 141L341 170Q334 178 325 192Q316 206 302 223Q287 237 282 245Q278 253 278 253Q275 253 264 243Q254 233 242 220Q231 206 225 196Q202 178 190 160Q178 143 163 120Q156 104 158 97Q160 90 168 87Q176 84 186 77ZM280 377Q291 389 312 404Q332 420 355 438Q378 455 398 474Q418 492 429 510Q440 529 435 546Q433 550 424 555Q415 560 403 564Q391 568 379 567Q359 569 342 553Q325 537 302 504Q277 467 268 436Q260 406 280 377Z"/><path id="cv-g" d="M214 -200Q186 -211 156 -196Q125 -182 103 -151Q99 -145 91 -130Q83 -114 76 -96Q68 -78 64 -65Q61 -52 64 -50Q68 -39 82 -37Q96 -35 110 -38Q124 -42 126 -48Q129 -55 132 -62Q135 -70 140 -76Q144 -83 148 -88Q159 -105 172 -112Q185 -118 192 -113Q209 -100 218 -82Q226 -65 240 -21Q251 16 259 43Q267 70 276 93Q279 105 284 114Q288 122 292 126H298Q276 112 261 98Q246 84 220 73Q214 66 190 64Q167 63 145 70Q131 78 122 86Q114 95 108 106Q103 117 97 132Q90 147 95 181Q100 215 113 249Q125 274 148 303Q171 332 197 356Q223 379 244 385Q252 389 272 394Q292 400 310 395Q327 393 336 388Q345 382 365 365Q378 352 397 332Q416 311 421 297Q428 282 424 264Q420 247 410 234Q401 221 391 208Q381 195 376 172Q371 142 357 104Q343 67 335 35L319 -27Q294 -112 264 -150Q234 -189 214 -200ZM193 144Q213 145 228 148Q242 152 255 164Q268 177 285 203Q302 227 309 247Q316 267 314 292Q313 308 305 313Q297 318 284 316Q265 313 250 300Q235 288 215 262Q200 242 190 214Q180 184 182 166Q183 148 193 144Z"/><path id="cv-n.ss01" d="M419 4Q404 4 390 14Q376 23 367 40Q358 58 358 82Q358 97 364 124Q369 152 380 194Q382 208 384 212Q385 216 385 220Q385 222 384 224Q384 225 382 225Q374 225 360 214Q347 204 330 190Q327 188 324 185Q320 182 316 179Q313 176 309 173Q299 167 278 150Q258 133 236 114Q215 95 199 82Q191 76 186 72Q180 68 178 68Q176 68 162 74Q149 79 136 90Q124 100 124 114Q124 123 132 150Q139 177 153 214Q167 251 185 289Q189 298 191 313Q193 328 196 342Q198 357 205 364Q208 369 212 372Q217 374 222 374Q232 374 241 370Q250 365 258 355Q273 339 274 318Q276 296 271 276Q266 256 260 244Q254 231 254 233Q258 235 266 243Q273 251 292 262Q318 282 332 290Q346 299 354 303Q361 307 367 312Q372 316 374 317Q377 318 377 318Q377 318 377 318Q377 318 377 318Q380 318 388 322Q395 326 402 326Q412 326 423 322Q434 317 442 310Q450 302 450 294Q450 291 452 289Q454 287 456 284Q461 278 468 268Q474 257 474 234Q474 218 467 187Q460 156 452 126Q444 95 444 76Q445 58 448 48Q451 39 451 33Q451 25 443 14Q435 4 419 4Z"/><path id="cv-t.ss02" d="M193 -60Q144 -59 130 -32Q117 -6 123 34Q129 53 130 68Q132 84 139 88Q139 88 140 91Q142 94 139 97Q139 110 148 133Q150 139 154 148Q157 156 157 156Q152 164 157 169Q162 174 168 178Q173 183 168 189Q166 193 173 208Q180 222 189 238Q198 254 201 263Q201 265 206 277Q211 289 218 305Q225 321 232 334Q238 347 240 351Q250 356 232 358Q214 360 194 359Q163 360 144 362Q126 364 114 371Q102 385 111 404Q120 424 140 425Q153 426 160 426Q168 426 180 428Q193 429 220 432L271 436L274 453Q282 466 285 470Q288 474 289 478Q290 483 292 495Q292 495 301 512Q310 528 312 546Q324 566 333 582Q342 599 344 603Q361 628 378 630Q394 632 409 622Q418 617 426 610Q434 602 436 590Q438 579 427 561Q425 557 421 546Q417 536 415 529Q409 522 400 506Q392 491 389 475Q381 458 379 454Q377 450 373 450Q375 440 385 440Q395 441 418 442Q437 444 444 446Q452 449 462 444Q467 437 468 424Q468 410 464 398Q460 385 453 382Q448 382 432 376Q417 371 394 370L341 365L324 331Q317 318 312 308Q307 297 305 295Q305 289 298 277Q292 265 285 251Q279 234 272 220Q264 206 264 206Q260 206 260 200Q265 188 257 182Q252 179 248 174Q245 168 245 168Q249 164 246 158Q244 152 240 145Q240 137 236 122Q231 107 226 94Q227 76 228 71Q229 66 233 67Q238 66 247 67Q256 68 260 68Q275 75 246 -2Q230 -27 214 -44Q198 -60 193 -60Z"/><path id="cv-s" d="M153 -6Q119 8 104 24Q88 39 91 51Q93 57 98 62Q103 67 120 66Q138 66 175 57Q186 57 197 58Q208 59 218 61Q227 63 233 66Q238 68 236 72Q234 75 229 79Q225 84 220 86Q215 87 211 87Q209 92 202 97Q196 102 187 108Q165 126 147 140Q129 154 133 161Q133 165 133 166Q133 166 133 166Q126 166 120 186Q114 205 114 221Q114 241 122 261Q131 281 144 299Q158 317 172 331Q191 349 212 366Q234 384 260 398Q285 412 316 420Q330 423 348 423Q366 423 374 418Q382 423 394 416Q406 408 418 395Q430 382 436 369Q436 357 436 340Q435 322 433 309Q431 296 424 296Q424 296 422 296Q419 295 419 290Q419 280 404 267Q385 254 368 246Q351 238 342 245Q336 249 331 253Q326 257 322 263Q322 263 320 268Q317 272 317 276Q317 280 320 284Q323 287 323 287Q337 300 344 311Q352 322 355 330Q358 339 358 344Q358 350 356 352Q353 353 345 353Q340 353 324 345Q307 337 289 326Q271 314 261 305Q257 298 256 296Q254 294 250 294Q250 298 245 293Q240 288 233 279Q226 270 219 260Q212 250 208 244Q207 235 204 228Q200 220 201 212Q202 202 211 193Q220 184 237 170Q272 144 290 129Q307 114 314 105Q321 96 323 87Q340 56 327 34Q314 11 287 -1Q277 -6 252 -10Q227 -15 200 -14Q172 -14 153 -6Z"/><clipPath id="clip7"><rect x="45.6" y="176.8" width="207.2" height="76.0"><animate attributeName="width" values="0;0;207.2" keyTimes="0;0.758;1" dur="1.65s" fill="freeze"/></rect></clipPath><path id="ph-O" d="M306 665Q376 665 425 620Q521 534 521 348Q521 163 415 57Q360 4 288 -1Q193 -1 140 64Q87 129 64 210Q42 290 42 365Q42 493 103 576Q167 665 306 665ZM299 582Q165 582 132 455Q122 421 122 368Q122 315 142 245Q169 151 222 113Q253 89 297 89Q341 89 376 128Q411 168 424 229Q437 290 437 352Q437 462 406 522Q374 582 299 582Z"/><path id="ph-b" d="M40 676Q40 716 90 716Q113 716 117 688V538Q117 496 118 454Q138 460 169 460Q266 460 319 395Q372 330 372 232Q372 134 310 66Q247 -1 149 -1Q51 -1 51 54Q51 110 46 336Q40 563 40 676ZM242 354Q206 382 166 382Q144 382 121 374Q127 292 127 83Q144 77 162 77Q201 77 240 106Q298 146 298 228Q298 311 242 354Z"/><path id="ph-M" d="M513 666Q537 666 544 631Q549 468 549 276Q549 83 547 53Q545 23 534 11Q523 -1 494 -1Q468 -1 468 31V257Q468 312 466 370Q464 428 464 443Q430 385 374 348Q318 310 249 310Q180 310 133 367Q131 306 131 222Q131 139 132 47Q132 22 116 10Q99 -1 78 -1Q51 -1 51 32Q52 122 52 317V601Q52 618 64 634Q75 650 90 650Q106 650 119 642Q132 633 133 616Q137 505 169 451Q201 397 245 397Q289 397 320 412Q352 426 372 445Q393 464 412 499Q439 549 464 622Q479 666 513 666Z"/><path id="ph-hyphen" d="M152 197 69 195Q55 195 46 205Q36 215 36 234Q36 252 48 264Q60 276 82 276H136H281Q312 276 331 276Q368 274 368 238Q368 221 356 208Q345 196 323 196Z"/><path id="ph-v" d="M361 472Q375 472 382 462Q389 453 389 442L388 432Q346 325 326 258Q313 211 306 188Q300 165 285 107Q270 49 265 32Q251 -2 216 -2Q199 -2 192 20Q160 120 98 246Q36 372 28 390Q19 409 19 424Q19 439 32 453Q46 467 63 467Q80 467 92 449Q103 427 154 326Q206 225 227 167Q228 173 234 192Q285 369 317 445Q334 472 361 472Z"/><clipPath id="clip8"><rect x="295.2" y="190.8" width="639.8" height="56.0"><animate attributeName="width" values="0;0;639.8" keyTimes="0;0.767;1" dur="2.15s" fill="freeze"/></rect></clipPath><path id="cv-o" d="M168 7Q155 7 148 12Q140 17 129 26Q110 46 98 69Q87 92 90 109Q93 117 92 124Q92 132 92 132Q87 137 89 138Q91 140 93 144Q99 144 97 155Q95 163 104 190Q112 216 127 240Q133 250 145 266Q157 283 172 300Q186 316 198 326Q223 347 244 360Q266 373 288 378Q310 383 334 383Q357 383 372 367Q395 357 404 340Q414 323 417 296Q420 266 411 222Q402 179 362 122Q337 86 313 66Q289 46 260 29Q239 15 215 12Q191 9 168 7ZM270 129Q292 148 302 171Q311 194 322 225Q326 231 328 245Q329 259 328 272Q327 286 321 288Q312 295 303 292Q294 288 280 278Q250 253 224 220Q199 188 189 141Q186 116 194 104Q203 91 222 96Q242 102 270 129Z"/><path id="cv-r.ss01" d="M180 21Q177 20 168 22Q158 24 148 27Q139 30 137 32Q133 36 126 46Q119 57 118 75Q118 93 135 118Q140 128 147 148Q154 168 162 190Q169 213 176 231Q182 249 185 256Q187 273 184 280Q180 288 166 289Q156 289 150 296Q145 303 145 321Q147 335 152 346Q158 356 168 363Q178 368 194 370Q209 372 224 371Q239 370 245 364Q252 360 256 346Q261 333 264 319Q267 305 268 298Q278 306 290 320Q303 335 316 348Q332 359 354 370Q376 382 386 382Q397 382 413 372Q429 361 433 353Q443 336 448 318Q452 299 441 285Q431 272 413 260Q395 247 368 252Q362 254 356 267Q349 280 348 286Q348 289 340 280Q331 272 320 260Q308 248 298 238Q281 217 262 181Q243 145 217 94Q205 69 197 46Q189 24 180 21Z"/><path id="cv-f_l" d="M132 -121Q126 -125 104 -112Q83 -98 69 -82Q62 -74 60 -65Q58 -56 61 -31Q65 -20 66 -10Q66 0 66 4Q66 10 70 32Q73 54 77 78Q81 103 84 116Q84 117 85 121Q86 125 87 128Q89 137 92 152Q96 167 99 189Q107 214 112 238Q118 263 118 272Q118 290 132 298Q133 303 138 314Q143 324 147 331Q167 388 180 422Q193 455 207 480Q213 497 220 515Q228 533 236 543Q241 556 259 576Q277 597 297 616Q317 636 329 646Q351 657 372 664Q392 672 413 672Q432 672 450 660Q467 648 480 636Q494 621 496 616Q498 611 498 597Q496 587 486 568Q476 550 463 530Q450 510 439 496Q428 481 424 481Q401 474 401 505Q401 512 394 518Q386 525 386 525Q386 528 388 536Q389 543 393 550Q398 560 396 572Q394 583 383 580Q380 578 371 572Q362 565 352 557Q343 549 336 542Q329 534 329 531Q329 531 325 522Q321 514 310 501Q303 491 298 482Q292 472 292 470Q292 466 292 462Q291 457 286 457Q286 457 283 448Q280 439 272 425Q268 415 262 404Q256 394 252 390H253Q253 390 248 378Q244 367 239 355Q234 343 234 341Q234 337 246 337Q258 337 275 340Q292 344 308 348Q322 352 327 352Q332 352 347 348Q355 343 360 330Q366 316 368 304Q371 291 368 287Q367 283 346 276Q325 269 304 265Q286 261 263 256Q240 251 223 247Q206 243 206 240Q202 240 199 236Q196 231 196 228Q196 214 192 207Q190 201 186 182Q181 163 176 141Q171 119 168 100Q164 81 164 75Q158 68 157 58Q156 47 156 39Q152 31 151 24Q150 18 150 14Q150 13 150 10Q150 7 149 4Q148 -6 146 -22Q145 -39 145 -55L142 -84Q141 -97 139 -106Q137 -116 132 -121ZM394 -30Q381 -25 372 -14Q364 -4 363 16Q363 29 365 54Q367 80 371 106Q371 108 372 110Q372 113 372 114Q373 118 374 126Q375 135 376 140Q378 146 378 141L384 168Q389 186 394 205Q399 224 403 238Q407 253 408 255Q408 255 412 266Q416 278 420 290Q436 340 450 373Q465 406 476 421Q477 424 479 428Q481 433 482 436Q482 447 484 452Q485 457 488 461Q490 465 494 472Q498 478 503 488L506 499Q512 512 521 530Q530 547 534 556Q537 565 546 578Q555 590 566 594L565 595Q570 604 584 610Q598 615 607 615Q621 615 628 607Q636 599 636 585Q636 570 636 564Q635 557 628 549H629Q631 551 628 543Q625 535 623 532Q621 527 618 521Q616 515 613 512Q610 508 598 484Q585 461 568 430Q552 398 538 368Q524 339 518 323L514 308Q512 304 512 302Q509 295 506 288Q503 281 500 276L483 214L479 193L470 170L464 151Q462 145 462 138Q461 131 458 128Q458 127 458 126Q457 124 457 123Q453 107 443 78Q433 49 431 14Q431 13 430 12Q430 11 430 10Q427 -11 418 -22Q409 -34 394 -30Z"/><path id="cv-o.ss01" d="M195 8Q174 4 164 10Q153 17 142 27Q126 35 113 50Q100 64 93 80Q86 96 87 105Q90 140 104 181Q117 222 138 261Q160 300 188 330Q215 361 247 375Q267 383 290 381Q313 379 321 362Q336 333 314 325Q311 325 307 322Q303 320 303 316Q307 314 325 316Q343 317 362 322Q380 326 386 331Q392 334 395 334Q398 334 410 332Q427 327 427 320Q427 316 430 308Q433 299 437 299Q444 298 440 285Q437 272 417 258Q398 246 394 242Q389 239 392 228Q400 209 391 182Q382 155 361 126Q340 97 312 72Q283 46 252 28Q222 11 195 8ZM198 92Q202 92 212 96Q222 101 228 104Q232 108 238 114Q245 119 249 120Q253 120 254 124Q255 127 261 138Q267 150 285 173Q305 195 311 208Q317 222 312 238Q311 242 306 243Q302 244 295 248Q285 248 282 244Q278 239 267 248L251 268L234 251Q218 235 206 211Q193 187 186 162Q179 137 177 118Q176 103 182 98Q188 93 198 92Z"/><clipPath id="clip9"><rect x="95.0" y="228.8" width="157.8" height="76.0"><animate attributeName="width" values="0;0;157.8" keyTimes="0;0.800;1" dur="2.0s" fill="freeze"/></rect></clipPath><path id="ph-G" d="M331 664Q379 664 426 640Q474 616 474 586Q474 540 436 540Q422 540 387 558Q352 576 328 576Q242 576 184 499Q127 422 127 303Q127 214 166 147Q205 80 258 80Q312 80 342 116Q373 151 373 196Q373 221 370 238Q366 254 352 268Q338 281 315 281Q292 281 272 291Q251 301 251 318Q251 335 261 350Q271 365 288 368Q356 368 380 354Q403 340 415 331Q427 322 435 301Q443 280 448 266Q452 252 454 221Q456 169 456 100Q456 30 446 14Q437 1 416 0Q395 0 387 9Q379 18 377 49Q353 28 316 14Q280 -1 252 -1Q164 -1 104 92Q44 186 44 318Q44 388 67 456Q90 523 129 569Q211 664 331 664Z"/><path id="ph-H" d="M132 383Q210 370 275 370Q340 370 358 371Q356 447 356 517Q356 587 356 612Q356 637 358 644Q360 650 371 656Q382 662 403 662Q433 662 433 626V272Q433 162 428 30Q427 1 379 1Q355 1 355 30L359 295Q327 293 272 293Q216 293 132 305Q132 173 144 29Q145 13 130 4Q115 -4 92 -4Q70 -4 68 19Q55 161 55 299L61 611Q61 631 76 640Q91 650 108 650Q136 650 136 623Z"/><path id="ph-m" d="M95 -1Q69 -1 64 28Q64 230 40 388Q40 408 54 424Q69 440 88 440Q106 440 115 419Q152 468 214 468Q293 468 336 392Q386 464 468 464Q551 464 592 398Q619 357 630 290Q641 223 641 100Q641 52 631 26Q621 -1 589 -1Q563 -1 563 32L566 157Q566 382 449 382Q412 382 397 356Q380 325 377 291Q373 231 373 182V37Q373 21 357 10Q341 -1 324 -1Q302 -1 296 28L299 235Q299 345 262 372Q244 385 208 385Q171 385 154 358Q136 331 136 271L142 85Q142 -1 95 -1Z"/><clipPath id="clip10"><rect x="295.2" y="242.8" width="308.6" height="56.0"><animate attributeName="width" values="0;0;308.6" keyTimes="0;0.800;1" dur="2.5s" fill="freeze"/></rect></clipPath></defs><g transform="rotate(0.5 500 165)"><g filter="url(#shadow)"><rect x="24" y="16" width="952" height="296" rx="3" fill="#FFFFFF"/></g><g stroke="#DCE8F5" stroke-width="1"><line x1="44" y1="16" x2="44" y2="312"/><line x1="68" y1="16" x2="68" y2="312"/><line x1="92" y1="16" x2="92" y2="312"/><line x1="116" y1="16" x2="116" y2="312"/><line x1="140" y1="16" x2="140" y2="312"/><line x1="164" y1="16" x2="164" y2="312"/><line x1="188" y1="16" x2="188" y2="312"/><line x1="212" y1="16" x2="212" y2="312"/><line x1="236" y1="16" x2="236" y2="312"/><line x1="260" y1="16" x2="260" y2="312"/><line x1="284" y1="16" x2="284" y2="312"/><line x1="308" y1="16" x2="308" y2="312"/><line x1="332" y1="16" x2="332" y2="312"/><line x1="356" y1="16" x2="356" y2="312"/><line x1="380" y1="16" x2="380" y2="312"/><line x1="404" y1="16" x2="404" y2="312"/><line x1="428" y1="16" x2="428" y2="312"/><line x1="452" y1="16" x2="452" y2="312"/><line x1="476" y1="16" x2="476" y2="312"/><line x1="500" y1="16" x2="500" y2="312"/><line x1="524" y1="16" x2="524" y2="312"/><line x1="548" y1="16" x2="548" y2="312"/><line x1="572" y1="16" x2="572" y2="312"/><line x1="596" y1="16" x2="596" y2="312"/><line x1="620" y1="16" x2="620" y2="312"/><line x1="644" y1="16" x2="644" y2="312"/><line x1="668" y1="16" x2="668" y2="312"/><line x1="692" y1="16" x2="692" y2="312"/><line x1="716" y1="16" x2="716" y2="312"/><line x1="740" y1="16" x2="740" y2="312"/><line x1="764" y1="16" x2="764" y2="312"/><line x1="788" y1="16" x2="788" y2="312"/><line x1="812" y1="16" x2="812" y2="312"/><line x1="836" y1="16" x2="836" y2="312"/><line x1="860" y1="16" x2="860" y2="312"/><line x1="884" y1="16" x2="884" y2="312"/><line x1="908" y1="16" x2="908" y2="312"/><line x1="932" y1="16" x2="932" y2="312"/><line x1="956" y1="16" x2="956" y2="312"/><line x1="24" y1="28" x2="976" y2="28"/><line x1="24" y1="52" x2="976" y2="52"/><line x1="24" y1="76" x2="976" y2="76"/><line x1="24" y1="100" x2="976" y2="100"/><line x1="24" y1="124" x2="976" y2="124"/><line x1="24" y1="148" x2="976" y2="148"/><line x1="24" y1="172" x2="976" y2="172"/><line x1="24" y1="196" x2="976" y2="196"/><line x1="24" y1="220" x2="976" y2="220"/><line x1="24" y1="244" x2="976" y2="244"/><line x1="24" y1="268" x2="976" y2="268"/><line x1="24" y1="292" x2="976" y2="292"/></g><g clip-path="url(#clip1)"><g fill="#6D28D9" transform="translate(164.9 74.0) scale(0.03800 -0.03800)"><use href="#cv-a" x="0" y="0"/><use href="#cv-p" x="446" y="0"/><use href="#cv-p.ss01" x="824" y="0"/><use href="#cv-l.ss02" x="1202" y="0"/><use href="#cv-e.ss01" x="1380" y="0"/></g></g><path d="M246.0 62.0 Q271.0 66.0 296.0 62.0 M285.1 70.8 L296.0 62.0 L282.9 57.0" fill="none" stroke="#5B5A68" stroke-width="2.5" stroke-linecap="round" stroke-linejoin="round" opacity="1" pathLength="1" stroke-dasharray="1 1"><animate attributeName="stroke-dashoffset" values="1;1;0" keyTimes="0;0.667;1" dur="0.75s" fill="freeze"/></path><g clip-path="url(#clip2)"><g fill="#2B2A35" transform="translate(312.0 74.0) scale(0.02800 -0.02800)"><use href="#ph-S" x="0" y="0"/><use href="#ph-w" x="459" y="0"/><use href="#ph-i" x="922" y="0"/><use href="#ph-f" x="1146" y="0"/><use href="#ph-t" x="1505" y="0"/><use href="#ph-comma" x="1849" y="0"/><use href="#ph-S" x="2281" y="0"/><use href="#ph-w" x="2740" y="0"/><use href="#ph-i" x="3203" y="0"/><use href="#ph-f" x="3427" y="0"/><use href="#ph-t" x="3786" y="0"/><use href="#ph-U" x="4130" y="0"/><use href="#ph-I" x="4680" y="0"/><use href="#ph-comma" x="4915" y="0"/><use href="#ph-A" x="5347" y="0"/><use href="#ph-p" x="5835" y="0"/><use href="#ph-p" x="6263" y="0"/><use href="#ph-K" x="6691" y="0"/><use href="#ph-i" x="7214" y="0"/><use href="#ph-t" x="7438" y="0"/><use href="#ph-comma" x="7782" y="0"/><use href="#ph-S" x="8214" y="0"/><use href="#ph-w" x="8673" y="0"/><use href="#ph-i" x="9136" y="0"/><use href="#ph-f" x="9360" y="0"/><use href="#ph-t" x="9719" y="0"/><use href="#ph-D" x="10063" y="0"/><use href="#ph-a" x="10538" y="0"/><use href="#ph-t" x="10930" y="0"/><use href="#ph-a" x="11274" y="0"/><use href="#ph-comma" x="11666" y="0"/><use href="#ph-A" x="12098" y="0"/><use href="#ph-V" x="12586" y="0"/><use href="#ph-F" x="13148" y="0"/><use href="#ph-o" x="13523" y="0"/><use href="#ph-u" x="13926" y="0"/><use href="#ph-n" x="14326" y="0"/><use href="#ph-d" x="14778" y="0"/><use href="#ph-a" x="15168" y="0"/><use href="#ph-t" x="15560" y="0"/><use href="#ph-i" x="15904" y="0"/><use href="#ph-o" x="16128" y="0"/><use href="#ph-n" x="16531" y="0"/><use href="#ph-comma" x="16983" y="0"/><use href="#ph-X" x="17415" y="0"/><use href="#ph-c" x="18016" y="0"/><use href="#ph-o" x="18404" y="0"/><use href="#ph-d" x="18807" y="0"/><use href="#ph-e" x="19197" y="0"/></g></g><g clip-path="url(#clip3)"><g fill="#6D28D9" transform="translate(180.8 126.0) scale(0.03800 -0.03800)"><use href="#cv-w" x="0" y="0"/><use href="#cv-e" x="517" y="0"/><use href="#cv-b.ss01" x="851" y="0"/></g></g><path d="M246.0 114.0 Q271.0 118.0 296.0 114.0 M285.1 122.8 L296.0 114.0 L282.9 109.0" fill="none" stroke="#5B5A68" stroke-width="2.5" stroke-linecap="round" stroke-linejoin="round" opacity="1" pathLength="1" stroke-dasharray="1 1"><animate attributeName="stroke-dashoffset" values="1;1;0" keyTimes="0;0.773;1" dur="1.1s" fill="freeze"/></path><g clip-path="url(#clip4)"><g fill="#2B2A35" transform="translate(312.0 126.0) scale(0.02800 -0.02800)"><use href="#ph-T" x="0" y="0"/><use href="#ph-y" x="468" y="0"/><use href="#ph-p" x="891" y="0"/><use href="#ph-e" x="1319" y="0"/><use href="#ph-S" x="1717" y="0"/><use href="#ph-c" x="2176" y="0"/><use href="#ph-r" x="2564" y="0"/><use href="#ph-i" x="2949" y="0"/><use href="#ph-p" x="3173" y="0"/><use href="#ph-t" x="3601" y="0"/><use href="#ph-comma" x="3945" y="0"/><use href="#ph-R" x="4377" y="0"/><use href="#ph-e" x="4831" y="0"/><use href="#ph-a" x="5229" y="0"/><use href="#ph-c" x="5621" y="0"/><use href="#ph-t" x="6009" y="0"/><use href="#ph-comma" x="6353" y="0"/><use href="#ph-N" x="6785" y="0"/><use href="#ph-e" x="7317" y="0"/><use href="#ph-x" x="7715" y="0"/><use href="#ph-t" x="8163" y="0"/><use href="#ph-period" x="8507" y="0"/><use href="#ph-j" x="8721" y="0"/><use href="#ph-s" x="8956" y="0"/><use href="#ph-comma" x="9341" y="0"/><use href="#ph-T" x="9773" y="0"/><use href="#ph-a" x="10241" y="0"/><use href="#ph-i" x="10633" y="0"/><use href="#ph-l" x="10857" y="0"/><use href="#ph-w" x="11123" y="0"/><use href="#ph-i" x="11586" y="0"/><use href="#ph-n" x="11810" y="0"/><use href="#ph-d" x="12262" y="0"/><use href="#ph-C" x="12882" y="0"/><use href="#ph-S" x="13430" y="0"/><use href="#ph-S" x="13889" y="0"/><use href="#ph-comma" x="14348" y="0"/><use href="#ph-C" x="14780" y="0"/><use href="#ph-l" x="15328" y="0"/><use href="#ph-o" x="15594" y="0"/><use href="#ph-u" x="15997" y="0"/><use href="#ph-d" x="16397" y="0"/><use href="#ph-f_l.liga" x="16787" y="0"/><use href="#ph-a" x="17299" y="0"/><use href="#ph-r" x="17691" y="0"/><use href="#ph-e" x="18076" y="0"/><use href="#ph-W" x="18704" y="0"/><use href="#ph-o" x="19320" y="0"/><use href="#ph-r" x="19723" y="0"/><use href="#ph-k" x="20108" y="0"/><use href="#ph-e" x="20523" y="0"/><use href="#ph-r" x="20921" y="0"/><use href="#ph-s" x="21306" y="0"/></g></g><g clip-path="url(#clip5)"><g fill="#6D28D9" transform="translate(123.3 178.0) scale(0.03800 -0.03800)"><use href="#cv-b" x="0" y="0"/><use href="#cv-a" x="434" y="0"/><use href="#cv-c.ss01" x="880" y="0"/><use href="#cv-k.ss02" x="1240" y="0"/><use href="#cv-e.ss01" x="1614" y="0"/><use href="#cv-n" x="1948" y="0"/><use href="#cv-d.ss01" x="2407" y="0"/></g></g><path d="M246.0 166.0 Q271.0 170.0 296.0 166.0 M285.1 174.8 L296.0 166.0 L282.9 161.0" fill="none" stroke="#5B5A68" stroke-width="2.5" stroke-linecap="round" stroke-linejoin="round" opacity="1" pathLength="1" stroke-dasharray="1 1"><animate attributeName="stroke-dashoffset" values="1;1;0" keyTimes="0;0.828;1" dur="1.45s" fill="freeze"/></path><g clip-path="url(#clip6)"><g fill="#2B2A35" transform="translate(312.0 178.0) scale(0.02800 -0.02800)"><use href="#ph-N" x="0" y="0"/><use href="#ph-o" x="532" y="0"/><use href="#ph-d" x="935" y="0"/><use href="#ph-e" x="1325" y="0"/><use href="#ph-period" x="1723" y="0"/><use href="#ph-j" x="1937" y="0"/><use href="#ph-s" x="2172" y="0"/><use href="#ph-comma" x="2557" y="0"/><use href="#ph-P" x="2989" y="0"/><use href="#ph-y" x="3470" y="0"/><use href="#ph-t" x="3893" y="0"/><use href="#ph-h" x="4237" y="0"/><use href="#ph-o" x="4657" y="0"/><use href="#ph-n" x="5060" y="0"/><use href="#ph-comma" x="5512" y="0"/><use href="#ph-P" x="5944" y="0"/><use href="#ph-o" x="6425" y="0"/><use href="#ph-s" x="6828" y="0"/><use href="#ph-t" x="7213" y="0"/><use href="#ph-g" x="7557" y="0"/><use href="#ph-r" x="8002" y="0"/><use href="#ph-e" x="8387" y="0"/><use href="#ph-S" x="8785" y="0"/><use href="#ph-Q" x="9244" y="0"/><use href="#ph-L" x="9899" y="0"/><use href="#ph-comma" x="10271" y="0"/><use href="#ph-S" x="10703" y="0"/><use href="#ph-Q" x="11162" y="0"/><use href="#ph-L" x="11817" y="0"/></g></g><g clip-path="url(#clip7)"><g fill="#6D28D9" transform="translate(68.4 230.0) scale(0.03800 -0.03800)"><use href="#cv-A" x="0" y="0"/><use href="#cv-I.ss01" x="511" y="0"/><use href="#cv-ampersand" x="1162" y="0"/><use href="#cv-a" x="1968" y="0"/><use href="#cv-g" x="2414" y="0"/><use href="#cv-e.ss01" x="2778" y="0"/><use href="#cv-n.ss01" x="3112" y="0"/><use href="#cv-t.ss02" x="3571" y="0"/><use href="#cv-s" x="3902" y="0"/></g></g><path d="M246.0 218.0 Q271.0 222.0 296.0 218.0 M285.1 226.8 L296.0 218.0 L282.9 213.0" fill="none" stroke="#5B5A68" stroke-width="2.5" stroke-linecap="round" stroke-linejoin="round" opacity="1" pathLength="1" stroke-dasharray="1 1"><animate attributeName="stroke-dashoffset" values="1;1;0" keyTimes="0;0.861;1" dur="1.7999999999999998s" fill="freeze"/></path><g clip-path="url(#clip8)"><g fill="#2B2A35" transform="translate(312.0 230.0) scale(0.02800 -0.02800)"><use href="#ph-C" x="0" y="0"/><use href="#ph-o" x="548" y="0"/><use href="#ph-d" x="951" y="0"/><use href="#ph-e" x="1341" y="0"/><use href="#ph-x" x="1739" y="0"/><use href="#ph-comma" x="2187" y="0"/><use href="#ph-C" x="2619" y="0"/><use href="#ph-l" x="3167" y="0"/><use href="#ph-a" x="3433" y="0"/><use href="#ph-u" x="3825" y="0"/><use href="#ph-d" x="4225" y="0"/><use href="#ph-e" x="4615" y="0"/><use href="#ph-C" x="5243" y="0"/><use href="#ph-o" x="5791" y="0"/><use href="#ph-d" x="6194" y="0"/><use href="#ph-e" x="6584" y="0"/><use href="#ph-comma" x="6982" y="0"/><use href="#ph-O" x="7414" y="0"/><use href="#ph-p" x="7970" y="0"/><use href="#ph-e" x="8398" y="0"/><use href="#ph-n" x="8796" y="0"/><use href="#ph-R" x="9248" y="0"/><use href="#ph-o" x="9702" y="0"/><use href="#ph-u" x="10105" y="0"/><use href="#ph-t" x="10505" y="0"/><use href="#ph-e" x="10849" y="0"/><use href="#ph-r" x="11247" y="0"/><use href="#ph-comma" x="11632" y="0"/><use href="#ph-W" x="12064" y="0"/><use href="#ph-e" x="12680" y="0"/><use href="#ph-b" x="13078" y="0"/><use href="#ph-M" x="13490" y="0"/><use href="#ph-C" x="14085" y="0"/><use href="#ph-P" x="14633" y="0"/><use href="#ph-comma" x="15114" y="0"/><use href="#ph-o" x="15546" y="0"/><use href="#ph-n" x="15949" y="0"/><use href="#ph-hyphen" x="16401" y="0"/><use href="#ph-d" x="16805" y="0"/><use href="#ph-e" x="17195" y="0"/><use href="#ph-v" x="17593" y="0"/><use href="#ph-i" x="17993" y="0"/><use href="#ph-c" x="18217" y="0"/><use href="#ph-e" x="18605" y="0"/><use href="#ph-s" x="19233" y="0"/><use href="#ph-p" x="19618" y="0"/><use href="#ph-e" x="20046" y="0"/><use href="#ph-e" x="20444" y="0"/><use href="#ph-c" x="20842" y="0"/><use href="#ph-h" x="21230" y="0"/></g></g><g clip-path="url(#clip9)"><g fill="#6D28D9" transform="translate(117.8 282.0) scale(0.03800 -0.03800)"><use href="#cv-w" x="0" y="0"/><use href="#cv-o" x="517" y="0"/><use href="#cv-r.ss01" x="879" y="0"/><use href="#cv-k.ss02" x="1239" y="0"/><use href="#cv-f_l" x="1613" y="0"/><use href="#cv-o.ss01" x="2073" y="0"/><use href="#cv-w" x="2435" y="0"/></g></g><path d="M246.0 270.0 Q271.0 274.0 296.0 270.0 M285.1 278.8 L296.0 270.0 L282.9 265.0" fill="none" stroke="#5B5A68" stroke-width="2.5" stroke-linecap="round" stroke-linejoin="round" opacity="1" pathLength="1" stroke-dasharray="1 1"><animate attributeName="stroke-dashoffset" values="1;1;0" keyTimes="0;0.884;1" dur="2.15s" fill="freeze"/></path><g clip-path="url(#clip10)"><g fill="#2B2A35" transform="translate(312.0 282.0) scale(0.02800 -0.02800)"><use href="#ph-G" x="0" y="0"/><use href="#ph-i" x="480" y="0"/><use href="#ph-t" x="704" y="0"/><use href="#ph-comma" x="1048" y="0"/><use href="#ph-G" x="1480" y="0"/><use href="#ph-i" x="1960" y="0"/><use href="#ph-t" x="2184" y="0"/><use href="#ph-H" x="2528" y="0"/><use href="#ph-u" x="2996" y="0"/><use href="#ph-b" x="3396" y="0"/><use href="#ph-comma" x="3808" y="0"/><use href="#ph-F" x="4240" y="0"/><use href="#ph-i" x="4615" y="0"/><use href="#ph-g" x="4839" y="0"/><use href="#ph-m" x="5284" y="0"/><use href="#ph-a" x="5964" y="0"/><use href="#ph-comma" x="6356" y="0"/><use href="#ph-O" x="6788" y="0"/><use href="#ph-b" x="7344" y="0"/><use href="#ph-s" x="7756" y="0"/><use href="#ph-i" x="8141" y="0"/><use href="#ph-d" x="8365" y="0"/><use href="#ph-i" x="8755" y="0"/><use href="#ph-a" x="8979" y="0"/><use href="#ph-n" x="9371" y="0"/></g></g></g></svg>